<?xml version="1.0" standalone="no"?>
<svg xmlns:xlink="http://www.w3.org/1999/xlink" id="wave" style="transform:rotate(0deg); transition: 0.3s" viewBox="0 0 1440 200" version="1.1" xmlns="http://www.w3.org/2000/svg"><defs><linearGradient id="sw-gradient-0" x1="0" x2="0" y1="1" y2="0"><stop stop-color="rgba(187.942, 236.769, 239.383, 1)" offset="0%"/><stop stop-color="rgba(90.186, 169.645, 227.999, 1)" offset="100%"/></linearGradient></defs><path style="transform:translate(0, 0px); opacity:1" fill="url(#sw-gradient-0)" d="M0,80L34.3,83.3C68.6,87,137,93,206,83.3C274.3,73,343,47,411,33.3C480,20,549,20,617,46.7C685.7,73,754,127,823,140C891.4,153,960,127,1029,123.3C1097.1,120,1166,140,1234,140C1302.9,140,1371,120,1440,116.7C1508.6,113,1577,127,1646,110C1714.3,93,1783,47,1851,46.7C1920,47,1989,93,2057,93.3C2125.7,93,2194,47,2263,33.3C2331.4,20,2400,40,2469,70C2537.1,100,2606,140,2674,160C2742.9,180,2811,180,2880,153.3C2948.6,127,3017,73,3086,53.3C3154.3,33,3223,47,3291,53.3C3360,60,3429,60,3497,66.7C3565.7,73,3634,87,3703,103.3C3771.4,120,3840,140,3909,133.3C3977.1,127,4046,93,4114,86.7C4182.9,80,4251,100,4320,103.3C4388.6,107,4457,93,4526,93.3C4594.3,93,4663,107,4731,100C4800,93,4869,67,4903,53.3L4937.1,40L4937.1,200L4902.9,200C4868.6,200,4800,200,4731,200C4662.9,200,4594,200,4526,200C4457.1,200,4389,200,4320,200C4251.4,200,4183,200,4114,200C4045.7,200,3977,200,3909,200C3840,200,3771,200,3703,200C3634.3,200,3566,200,3497,200C3428.6,200,3360,200,3291,200C3222.9,200,3154,200,3086,200C3017.1,200,2949,200,2880,200C2811.4,200,2743,200,2674,200C2605.7,200,2537,200,2469,200C2400,200,2331,200,2263,200C2194.3,200,2126,200,2057,200C1988.6,200,1920,200,1851,200C1782.9,200,1714,200,1646,200C1577.1,200,1509,200,1440,200C1371.4,200,1303,200,1234,200C1165.7,200,1097,200,1029,200C960,200,891,200,823,200C754.3,200,686,200,617,200C548.6,200,480,200,411,200C342.9,200,274,200,206,200C137.1,200,69,200,34,200L0,200Z"/></svg>